<mxfile host="app.diagrams.net" agent="Mozilla/5.0 (Windows NT 10.0; Win64; x64) AppleWebKit/537.36 (KHTML, like Gecko) Chrome/130.0.0.0 Safari/537.36 Edg/130.0.0.0" version="24.7.16">
  <diagram id="C5RBs43oDa-KdzZeNtuy" name="Page-1">
    <mxGraphModel dx="1733" dy="1662" grid="1" gridSize="10" guides="1" tooltips="1" connect="1" arrows="1" fold="1" page="1" pageScale="1" pageWidth="827" pageHeight="1169" math="0" shadow="0">
      <root>
        <mxCell id="WIyWlLk6GJQsqaUBKTNV-0" />
        <mxCell id="WIyWlLk6GJQsqaUBKTNV-1" parent="WIyWlLk6GJQsqaUBKTNV-0" />
        <mxCell id="RSTJzvgVoQW1j-pHW0Er-7" style="edgeStyle=orthogonalEdgeStyle;rounded=0;orthogonalLoop=1;jettySize=auto;html=1;entryX=0.5;entryY=0;entryDx=0;entryDy=0;" edge="1" parent="WIyWlLk6GJQsqaUBKTNV-1" source="RSTJzvgVoQW1j-pHW0Er-0" target="RSTJzvgVoQW1j-pHW0Er-6">
          <mxGeometry relative="1" as="geometry" />
        </mxCell>
        <mxCell id="RSTJzvgVoQW1j-pHW0Er-0" value="A formal agreement has been made to perform compliance check with their financial data" style="rounded=1;whiteSpace=wrap;html=1;" vertex="1" parent="WIyWlLk6GJQsqaUBKTNV-1">
          <mxGeometry x="80" y="-130" width="170" height="60" as="geometry" />
        </mxCell>
        <mxCell id="RSTJzvgVoQW1j-pHW0Er-3" style="edgeStyle=orthogonalEdgeStyle;rounded=0;orthogonalLoop=1;jettySize=auto;html=1;entryX=0;entryY=0.5;entryDx=0;entryDy=0;" edge="1" parent="WIyWlLk6GJQsqaUBKTNV-1" source="RSTJzvgVoQW1j-pHW0Er-1" target="RSTJzvgVoQW1j-pHW0Er-2">
          <mxGeometry relative="1" as="geometry" />
        </mxCell>
        <mxCell id="RSTJzvgVoQW1j-pHW0Er-9" style="edgeStyle=orthogonalEdgeStyle;rounded=0;orthogonalLoop=1;jettySize=auto;html=1;entryX=0;entryY=0.5;entryDx=0;entryDy=0;" edge="1" parent="WIyWlLk6GJQsqaUBKTNV-1" source="RSTJzvgVoQW1j-pHW0Er-1" target="RSTJzvgVoQW1j-pHW0Er-6">
          <mxGeometry relative="1" as="geometry">
            <Array as="points">
              <mxPoint x="65" y="275" />
              <mxPoint x="65" y="65" />
            </Array>
          </mxGeometry>
        </mxCell>
        <mxCell id="RSTJzvgVoQW1j-pHW0Er-1" value="has all the data required been received?" style="rhombus;whiteSpace=wrap;html=1;" vertex="1" parent="WIyWlLk6GJQsqaUBKTNV-1">
          <mxGeometry x="102.5" y="220" width="125" height="110" as="geometry" />
        </mxCell>
        <mxCell id="RSTJzvgVoQW1j-pHW0Er-11" style="edgeStyle=orthogonalEdgeStyle;rounded=0;orthogonalLoop=1;jettySize=auto;html=1;entryX=1;entryY=0.5;entryDx=0;entryDy=0;" edge="1" parent="WIyWlLk6GJQsqaUBKTNV-1" source="RSTJzvgVoQW1j-pHW0Er-2" target="RSTJzvgVoQW1j-pHW0Er-6">
          <mxGeometry relative="1" as="geometry">
            <Array as="points">
              <mxPoint x="500" y="65" />
            </Array>
          </mxGeometry>
        </mxCell>
        <mxCell id="RSTJzvgVoQW1j-pHW0Er-41" style="edgeStyle=orthogonalEdgeStyle;rounded=0;orthogonalLoop=1;jettySize=auto;html=1;entryX=0;entryY=0.5;entryDx=0;entryDy=0;" edge="1" parent="WIyWlLk6GJQsqaUBKTNV-1" source="RSTJzvgVoQW1j-pHW0Er-2" target="RSTJzvgVoQW1j-pHW0Er-13">
          <mxGeometry relative="1" as="geometry" />
        </mxCell>
        <mxCell id="RSTJzvgVoQW1j-pHW0Er-2" value="Does the data pass all the given security check with the data control team?" style="rhombus;whiteSpace=wrap;html=1;" vertex="1" parent="WIyWlLk6GJQsqaUBKTNV-1">
          <mxGeometry x="410" y="190" width="180" height="160" as="geometry" />
        </mxCell>
        <mxCell id="RSTJzvgVoQW1j-pHW0Er-5" value="Yes" style="text;html=1;align=center;verticalAlign=middle;whiteSpace=wrap;rounded=0;fontStyle=1" vertex="1" parent="WIyWlLk6GJQsqaUBKTNV-1">
          <mxGeometry x="280" y="250" width="60" height="30" as="geometry" />
        </mxCell>
        <mxCell id="RSTJzvgVoQW1j-pHW0Er-8" style="edgeStyle=orthogonalEdgeStyle;rounded=0;orthogonalLoop=1;jettySize=auto;html=1;entryX=0.5;entryY=0;entryDx=0;entryDy=0;" edge="1" parent="WIyWlLk6GJQsqaUBKTNV-1" source="RSTJzvgVoQW1j-pHW0Er-6" target="RSTJzvgVoQW1j-pHW0Er-1">
          <mxGeometry relative="1" as="geometry" />
        </mxCell>
        <mxCell id="RSTJzvgVoQW1j-pHW0Er-6" value="The client gives the data control team access to their data system and collects data" style="rounded=1;whiteSpace=wrap;html=1;" vertex="1" parent="WIyWlLk6GJQsqaUBKTNV-1">
          <mxGeometry x="85" y="30" width="160" height="70" as="geometry" />
        </mxCell>
        <mxCell id="RSTJzvgVoQW1j-pHW0Er-10" value="No" style="text;html=1;align=center;verticalAlign=middle;whiteSpace=wrap;rounded=0;" vertex="1" parent="WIyWlLk6GJQsqaUBKTNV-1">
          <mxGeometry x="10" y="160" width="60" height="30" as="geometry" />
        </mxCell>
        <mxCell id="RSTJzvgVoQW1j-pHW0Er-12" value="No" style="text;html=1;align=center;verticalAlign=middle;whiteSpace=wrap;rounded=0;" vertex="1" parent="WIyWlLk6GJQsqaUBKTNV-1">
          <mxGeometry x="500" y="120" width="60" height="30" as="geometry" />
        </mxCell>
        <mxCell id="RSTJzvgVoQW1j-pHW0Er-45" style="edgeStyle=orthogonalEdgeStyle;rounded=0;orthogonalLoop=1;jettySize=auto;html=1;" edge="1" parent="WIyWlLk6GJQsqaUBKTNV-1" source="RSTJzvgVoQW1j-pHW0Er-13" target="RSTJzvgVoQW1j-pHW0Er-14">
          <mxGeometry relative="1" as="geometry" />
        </mxCell>
        <mxCell id="RSTJzvgVoQW1j-pHW0Er-13" value="Approve the data to be given to the data cleaning team" style="rounded=1;whiteSpace=wrap;html=1;" vertex="1" parent="WIyWlLk6GJQsqaUBKTNV-1">
          <mxGeometry x="707" y="245" width="120" height="60" as="geometry" />
        </mxCell>
        <mxCell id="RSTJzvgVoQW1j-pHW0Er-19" style="edgeStyle=orthogonalEdgeStyle;rounded=0;orthogonalLoop=1;jettySize=auto;html=1;" edge="1" parent="WIyWlLk6GJQsqaUBKTNV-1" source="RSTJzvgVoQW1j-pHW0Er-14" target="RSTJzvgVoQW1j-pHW0Er-15">
          <mxGeometry relative="1" as="geometry" />
        </mxCell>
        <mxCell id="RSTJzvgVoQW1j-pHW0Er-14" value="Perform the following formatitng checks:&lt;div&gt;1. Rename required columns.&lt;/div&gt;&lt;div&gt;2.Change columns to required data types.&lt;/div&gt;&lt;div&gt;3.Remove unused columns.&lt;/div&gt;&lt;div&gt;4. Add all required columns needed for calculation&lt;/div&gt;" style="rounded=1;whiteSpace=wrap;html=1;" vertex="1" parent="WIyWlLk6GJQsqaUBKTNV-1">
          <mxGeometry x="660.5" y="410" width="213" height="220" as="geometry" />
        </mxCell>
        <mxCell id="RSTJzvgVoQW1j-pHW0Er-17" style="edgeStyle=orthogonalEdgeStyle;rounded=0;orthogonalLoop=1;jettySize=auto;html=1;entryX=1;entryY=0.5;entryDx=0;entryDy=0;" edge="1" parent="WIyWlLk6GJQsqaUBKTNV-1" source="RSTJzvgVoQW1j-pHW0Er-15" target="RSTJzvgVoQW1j-pHW0Er-16">
          <mxGeometry relative="1" as="geometry" />
        </mxCell>
        <mxCell id="RSTJzvgVoQW1j-pHW0Er-21" style="edgeStyle=orthogonalEdgeStyle;rounded=0;orthogonalLoop=1;jettySize=auto;html=1;entryX=0.5;entryY=0;entryDx=0;entryDy=0;" edge="1" parent="WIyWlLk6GJQsqaUBKTNV-1" source="RSTJzvgVoQW1j-pHW0Er-15" target="RSTJzvgVoQW1j-pHW0Er-20">
          <mxGeometry relative="1" as="geometry" />
        </mxCell>
        <mxCell id="RSTJzvgVoQW1j-pHW0Er-15" value="is there any error in the data code?" style="rhombus;whiteSpace=wrap;html=1;" vertex="1" parent="WIyWlLk6GJQsqaUBKTNV-1">
          <mxGeometry x="700.5" y="720" width="133" height="130" as="geometry" />
        </mxCell>
        <mxCell id="RSTJzvgVoQW1j-pHW0Er-16" value="Report to data control team or relevant senior" style="rounded=1;whiteSpace=wrap;html=1;" vertex="1" parent="WIyWlLk6GJQsqaUBKTNV-1">
          <mxGeometry x="354" y="755" width="120" height="60" as="geometry" />
        </mxCell>
        <mxCell id="RSTJzvgVoQW1j-pHW0Er-18" value="No" style="text;html=1;align=center;verticalAlign=middle;whiteSpace=wrap;rounded=0;" vertex="1" parent="WIyWlLk6GJQsqaUBKTNV-1">
          <mxGeometry x="767" y="900" width="60" height="30" as="geometry" />
        </mxCell>
        <mxCell id="RSTJzvgVoQW1j-pHW0Er-27" style="edgeStyle=orthogonalEdgeStyle;rounded=0;orthogonalLoop=1;jettySize=auto;html=1;entryX=1;entryY=0.5;entryDx=0;entryDy=0;" edge="1" parent="WIyWlLk6GJQsqaUBKTNV-1" source="RSTJzvgVoQW1j-pHW0Er-20" target="RSTJzvgVoQW1j-pHW0Er-23">
          <mxGeometry relative="1" as="geometry" />
        </mxCell>
        <mxCell id="RSTJzvgVoQW1j-pHW0Er-20" value="Send formatted information for visualization" style="rounded=1;whiteSpace=wrap;html=1;" vertex="1" parent="WIyWlLk6GJQsqaUBKTNV-1">
          <mxGeometry x="707" y="980" width="120" height="60" as="geometry" />
        </mxCell>
        <mxCell id="RSTJzvgVoQW1j-pHW0Er-22" value="Yes" style="text;html=1;align=center;verticalAlign=middle;whiteSpace=wrap;rounded=0;" vertex="1" parent="WIyWlLk6GJQsqaUBKTNV-1">
          <mxGeometry x="530" y="750" width="60" height="30" as="geometry" />
        </mxCell>
        <mxCell id="RSTJzvgVoQW1j-pHW0Er-24" style="edgeStyle=orthogonalEdgeStyle;rounded=0;orthogonalLoop=1;jettySize=auto;html=1;entryX=0.25;entryY=1;entryDx=0;entryDy=0;" edge="1" parent="WIyWlLk6GJQsqaUBKTNV-1" source="RSTJzvgVoQW1j-pHW0Er-23" target="RSTJzvgVoQW1j-pHW0Er-16">
          <mxGeometry relative="1" as="geometry" />
        </mxCell>
        <mxCell id="RSTJzvgVoQW1j-pHW0Er-29" style="edgeStyle=orthogonalEdgeStyle;rounded=0;orthogonalLoop=1;jettySize=auto;html=1;" edge="1" parent="WIyWlLk6GJQsqaUBKTNV-1" source="RSTJzvgVoQW1j-pHW0Er-23" target="RSTJzvgVoQW1j-pHW0Er-28">
          <mxGeometry relative="1" as="geometry" />
        </mxCell>
        <mxCell id="RSTJzvgVoQW1j-pHW0Er-23" value="Are there any visualization problems?" style="rhombus;whiteSpace=wrap;html=1;" vertex="1" parent="WIyWlLk6GJQsqaUBKTNV-1">
          <mxGeometry x="420" y="950" width="140" height="110" as="geometry" />
        </mxCell>
        <mxCell id="RSTJzvgVoQW1j-pHW0Er-25" value="No" style="text;html=1;align=center;verticalAlign=middle;whiteSpace=wrap;rounded=0;" vertex="1" parent="WIyWlLk6GJQsqaUBKTNV-1">
          <mxGeometry x="320" y="980" width="60" height="30" as="geometry" />
        </mxCell>
        <mxCell id="RSTJzvgVoQW1j-pHW0Er-26" value="Yes" style="text;html=1;align=center;verticalAlign=middle;whiteSpace=wrap;rounded=0;" vertex="1" parent="WIyWlLk6GJQsqaUBKTNV-1">
          <mxGeometry x="420" y="850" width="60" height="30" as="geometry" />
        </mxCell>
        <mxCell id="RSTJzvgVoQW1j-pHW0Er-34" style="edgeStyle=orthogonalEdgeStyle;rounded=0;orthogonalLoop=1;jettySize=auto;html=1;" edge="1" parent="WIyWlLk6GJQsqaUBKTNV-1" source="RSTJzvgVoQW1j-pHW0Er-28" target="RSTJzvgVoQW1j-pHW0Er-30">
          <mxGeometry relative="1" as="geometry" />
        </mxCell>
        <mxCell id="RSTJzvgVoQW1j-pHW0Er-28" value="Send compliance test for approval to auditors for approval" style="rounded=1;whiteSpace=wrap;html=1;" vertex="1" parent="WIyWlLk6GJQsqaUBKTNV-1">
          <mxGeometry x="140" y="980" width="120" height="60" as="geometry" />
        </mxCell>
        <mxCell id="RSTJzvgVoQW1j-pHW0Er-32" style="edgeStyle=orthogonalEdgeStyle;rounded=0;orthogonalLoop=1;jettySize=auto;html=1;entryX=0.5;entryY=1;entryDx=0;entryDy=0;" edge="1" parent="WIyWlLk6GJQsqaUBKTNV-1" source="RSTJzvgVoQW1j-pHW0Er-30" target="RSTJzvgVoQW1j-pHW0Er-31">
          <mxGeometry relative="1" as="geometry" />
        </mxCell>
        <mxCell id="RSTJzvgVoQW1j-pHW0Er-37" style="edgeStyle=orthogonalEdgeStyle;rounded=0;orthogonalLoop=1;jettySize=auto;html=1;entryX=0.5;entryY=0;entryDx=0;entryDy=0;" edge="1" parent="WIyWlLk6GJQsqaUBKTNV-1" source="RSTJzvgVoQW1j-pHW0Er-30" target="RSTJzvgVoQW1j-pHW0Er-36">
          <mxGeometry relative="1" as="geometry" />
        </mxCell>
        <mxCell id="RSTJzvgVoQW1j-pHW0Er-30" value="Are there any problems audit identified?" style="rhombus;whiteSpace=wrap;html=1;" vertex="1" parent="WIyWlLk6GJQsqaUBKTNV-1">
          <mxGeometry x="-90" y="957.5" width="120" height="105" as="geometry" />
        </mxCell>
        <mxCell id="RSTJzvgVoQW1j-pHW0Er-33" style="edgeStyle=orthogonalEdgeStyle;rounded=0;orthogonalLoop=1;jettySize=auto;html=1;entryX=0;entryY=0.5;entryDx=0;entryDy=0;" edge="1" parent="WIyWlLk6GJQsqaUBKTNV-1" source="RSTJzvgVoQW1j-pHW0Er-31" target="RSTJzvgVoQW1j-pHW0Er-16">
          <mxGeometry relative="1" as="geometry" />
        </mxCell>
        <mxCell id="RSTJzvgVoQW1j-pHW0Er-31" value="Report to relevant data analyst" style="rounded=1;whiteSpace=wrap;html=1;" vertex="1" parent="WIyWlLk6GJQsqaUBKTNV-1">
          <mxGeometry x="-90" y="815" width="120" height="60" as="geometry" />
        </mxCell>
        <mxCell id="RSTJzvgVoQW1j-pHW0Er-35" value="Yes" style="text;html=1;align=center;verticalAlign=middle;whiteSpace=wrap;rounded=0;" vertex="1" parent="WIyWlLk6GJQsqaUBKTNV-1">
          <mxGeometry x="-40" y="910" width="60" height="30" as="geometry" />
        </mxCell>
        <mxCell id="RSTJzvgVoQW1j-pHW0Er-40" style="edgeStyle=orthogonalEdgeStyle;rounded=0;orthogonalLoop=1;jettySize=auto;html=1;entryX=0;entryY=0.5;entryDx=0;entryDy=0;" edge="1" parent="WIyWlLk6GJQsqaUBKTNV-1" source="RSTJzvgVoQW1j-pHW0Er-36" target="RSTJzvgVoQW1j-pHW0Er-39">
          <mxGeometry relative="1" as="geometry" />
        </mxCell>
        <mxCell id="RSTJzvgVoQW1j-pHW0Er-36" value="Send through compliance result to relevant partner" style="rounded=1;whiteSpace=wrap;html=1;" vertex="1" parent="WIyWlLk6GJQsqaUBKTNV-1">
          <mxGeometry x="-90" y="1140" width="120" height="60" as="geometry" />
        </mxCell>
        <mxCell id="RSTJzvgVoQW1j-pHW0Er-38" value="No" style="text;html=1;align=center;verticalAlign=middle;whiteSpace=wrap;rounded=0;" vertex="1" parent="WIyWlLk6GJQsqaUBKTNV-1">
          <mxGeometry x="-50" y="1080" width="60" height="30" as="geometry" />
        </mxCell>
        <mxCell id="RSTJzvgVoQW1j-pHW0Er-39" value="" style="ellipse;whiteSpace=wrap;html=1;" vertex="1" parent="WIyWlLk6GJQsqaUBKTNV-1">
          <mxGeometry x="110" y="1150" width="40" height="40" as="geometry" />
        </mxCell>
        <mxCell id="RSTJzvgVoQW1j-pHW0Er-42" value="Yes" style="text;html=1;align=center;verticalAlign=middle;whiteSpace=wrap;rounded=0;fontStyle=1" vertex="1" parent="WIyWlLk6GJQsqaUBKTNV-1">
          <mxGeometry x="620" y="245" width="60" height="30" as="geometry" />
        </mxCell>
      </root>
    </mxGraphModel>
  </diagram>
</mxfile>
